<?xml version="1.0" standalone="no"?>
<!DOCTYPE svg PUBLIC "-//W3C//DTD SVG 1.1//EN" "http://www.w3.org/Graphics/SVG/1.1/DTD/svg11.dtd">
<svg xmlns="http://www.w3.org/2000/svg">
<metadata>Generated by Fontastic.me</metadata>
<defs>
<font id="optimus-icons" horiz-adv-x="512">
<font-face font-family="optimus-icons" units-per-em="512" ascent="480" descent="-32"/>
<missing-glyph horiz-adv-x="512" />

<glyph glyph-name="basket-icon" unicode="&#97;" d="M485 320l-79 0-94 99c-7 7-18 9-23 4l-4-4c-6-5-4-16 3-23l72-76-190 0 72 76c7 7 9 18 3 23l-4 4c-5 5-16 3-23-4l-95-99-96 0c-12 0-22-10-22-22 0-13 10-22 22-22l4 0 91-167c8-14 22-23 39-23l194 0c17 0 31 9 39 23l91 167c12 0 22 10 22 22 0 12-10 22-22 22z m-109-51c8 0 15-7 15-15 0-9-7-16-15-16-9 0-16 7-16 16 0 8 7 15 16 15z m-8-58c0-9-7-16-16-16-8 0-15 7-15 16 0 8 7 15 15 15 9 0 16-7 16-15z m-40 58c8 0 15-7 15-15 0-9-7-16-15-16-9 0-16 7-16 16 0 8 7 15 16 15z m-8-58c0-9-7-16-16-16-8 0-15 7-15 16 0 8 7 15 15 15 9 0 16-7 16-15z m-40 58c8 0 15-7 15-15 0-9-7-16-15-16-9 0-16 7-16 16 0 8 7 15 16 15z m-8-58c0-9-7-16-16-16-8 0-15 7-15 16 0 8 7 15 15 15 9 0 16-7 16-15z m-40 58c9 0 16-7 16-15 0-9-7-16-16-16-9 0-15 7-15 16-1 8 6 15 15 15z m-8-58c0-9-7-16-15-16-9 0-16 7-16 16 0 8 7 15 16 15 8 0 15-7 15-15z m-40 58c9 0 16-7 16-15 0-9-7-16-16-16-8 0-15 7-15 16 0 8 7 15 15 15z m-8-58c0-9-7-16-15-16-9 0-16 7-16 16 0 8 7 15 16 15 8 0 15-7 15-15z m-40 58c9 0 16-7 16-15 0-9-7-16-16-16-8 0-15 7-15 16 0 8 7 15 15 15z m-63-15c0 8 7 15 16 15 8 0 15-7 15-15 0-9-7-16-15-16-9 0-16 7-16 16z m24-43c0 8 7 15 16 15 9 0 16-7 16-15 0-9-7-16-16-16-9 0-16 7-16 16z m24-43c0 9 7 16 15 16 9 0 16-7 16-16 0-9-7-16-16-16-8 0-15 7-15 16z m40-60c-9 0-16 7-16 16 0 8 7 15 16 15 8 0 15-7 15-15 0-9-7-16-15-16z m8 60c0 9 7 16 15 16 9 0 16-7 16-16 0-9-7-16-16-16-8 0-15 7-15 16z m40-60c-9 0-16 7-16 16 0 8 7 15 16 15 8 0 15-7 15-15 0-9-7-16-15-16z m7 60c0 9 7 16 16 16 9 0 16-7 16-16 0-9-7-16-16-16-9 0-16 7-16 16z m40-60c-8 0-15 7-15 16 0 8 7 15 15 15 9 0 16-7 16-15 0-9-7-16-16-16z m8 60c0 9 7 16 16 16 8 0 15-7 15-16 0-9-7-16-15-16-9 0-16 7-16 16z m40-60c-8 0-15 7-15 16 0 8 7 15 15 15 9 0 16-7 16-15 0-9-7-16-16-16z m8 60c0 9 7 16 16 16 8 0 15-7 15-16 0-9-7-16-15-16-9 0-16 7-16 16z m40-60c-8 0-15 7-15 16 0 8 7 15 15 15 9 0 16-7 16-15 0-9-7-16-16-16z m24 44c-9 0-16 7-16 16 0 9 7 16 16 16 8 0 15-7 15-16 0-9-7-16-15-16z m24 43c-8 0-15 7-15 16 0 8 7 15 15 15 9 0 16-7 16-15 0-9-7-16-16-16z m24 43c-9 0-16 7-16 16 0 8 7 15 16 15 8 0 15-7 15-15 0-9-7-16-15-16z"/>
<glyph glyph-name="facebook-icon" unicode="&#98;" d="M0 478c0 19 15 34 34 34l444 0c19 0 34-15 34-34l0-444c0-19-15-34-34-34l-444 0c-19 0-34 15-34 34z m280-217l42 0 6 49-48 0 0 31c0 14 4 23 24 23l26 0 0 44c-5 0-20 2-38 2-37 0-62-23-62-65l0-35-42 0 0-49 42 0 0-124 50 0z"/>
<glyph glyph-name="grid-icon" unicode="&#99;" d="M0 241l241 0 0-241-241 0z m271 0l241 0 0-241-241 0z m-271 271l241 0 0-241-241 0z m271 0l241 0 0-241-241 0z"/>
<glyph glyph-name="key-icon" unicode="&#100;" d="M256 395c-15 0-27-12-27-27 0-15 12-27 27-27 15 0 27 12 27 27 0 15-12 27-27 27z m169 113l-338 0c-26 0-47-21-47-46l0-412c0-25 21-46 47-46l338 0c26 0 47 21 47 46l0 412c0 25-21 46-47 46z m-132-233l0-45-33-23 21-20 0-6-22-22 22-31 0-5-26-27c-4-3-7-3-11 0l-26 26 0 154c-23 13-38 38-38 66 0 42 34 76 76 76 42 0 76-34 76-76 0-29-16-54-39-67z"/>
<glyph glyph-name="linkedin-icon" unicode="&#101;" d="M478 512l-444 0c-19 0-34-15-34-34l0-444c0-19 15-34 34-34l444 0c19 0 34 15 34 34l0 444c0 19-15 34-34 34z m-300-392l-62 0 0 184 62 0z m-31 209l0 0c-21 0-34 14-34 31 0 18 13 32 34 32 21 0 34-14 35-32 0-17-14-31-35-31z m252-209l-61 0 0 98c0 25-9 42-31 42-17 0-27-12-32-23-1-4-2-9-2-15l0-102-61 0c0 0 1 166 0 184l61 0 0-26c8 12 23 30 56 30 40 0 70-26 70-83z"/>
<glyph glyph-name="list-icon" unicode="&#102;" d="M171 245l341 0 0-170-341 0z m-171 192l149 0 0-362-149 0z m171 0l341 0 0-170-341 0z"/>
<glyph glyph-name="menu-icon" unicode="&#103;" d="M0 303l512 0 0-94-512 0z m465 139l-418 0c-26 0-47-21-47-46l0-47 512 0 0 47c0 25-21 46-47 46z m-418-279l-47 0 0-47c0-25 21-46 47-46l418 0c26 0 47 21 47 46l0 47z"/>
<glyph glyph-name="pinterest-icon" unicode="&#104;" d="M0 478c0 19 15 34 34 34l444 0c19 0 34-15 34-34l0-444c0-19-15-34-34-34l-444 0c-19 0-34 15-34 34z m102-211c0-66 39-122 96-147 0 11 0 24 3 36 2 14 20 88 20 88 0 0-6 10-6 25 0 24 14 42 31 42 15 0 22-11 22-24 0-15-10-37-14-57-4-17 10-31 26-31 31 0 51 39 51 85 0 35-24 61-66 61-48 0-78-37-78-77 0-14 4-24 11-31 3-4 4-5 3-9-2-3-3-10-3-14-1-4-4-5-8-4-23 9-32 34-32 61 0 45 37 99 114 99 60 0 101-44 101-91 0-64-35-109-86-109-18 0-34 9-39 20 0 0-10-36-11-45-4-12-9-24-16-33 15-4 29-7 46-7 88 0 160 71 160 160-4 90-76 162-164 162-89 0-161-72-161-160z"/>
<glyph glyph-name="twitter-icon" unicode="&#105;" d="M0 478c0 19 15 34 34 34l444 0c19 0 34-15 34-34l0-444c0-19-15-34-34-34l-444 0c-19 0-34 15-34 34z m426-118c-12-6-26-9-40-11 15 8 26 22 31 38-14-8-29-14-44-17-13 14-31 22-51 22-39 0-70-31-70-69 0-5 0-10 2-15-58 3-110 30-144 71-6-10-10-22-10-34 0-24 13-45 31-57-11 0-22 3-31 8 0 0 0 0 0-1 0-33 24-61 56-67-6-1-12-2-19-2-4 0-9 0-13 1 9-27 35-47 65-48-24-18-54-29-86-29-6 0-12 0-17 1 31-20 68-31 107-31 128 0 199 105 199 195 0 3 0 6-1 9 14 10 26 22 35 36z"/>
<glyph glyph-name="tekstballons" unicode="&#106;" d="M67 182c-2 0-4 1-6 2-5 2-8 7-8 12l0 47-39 0c-8 0-14 6-14 13l0 180c0 7 6 14 14 14l273 0c7 0 13-7 13-14l0-120c0-8-6-14-13-14-8 0-14 6-14 14l0 106-246 0 0-152 40 0c7 0 13-6 13-14l0-28 39 38c3 2 6 4 10 4l96 0c8 0 14-6 14-14 0-7-6-13-14-13l-91 0-58-57c-3-2-6-4-9-4z m378-120c-3 0-6 2-9 4l-58 57-153 0c-7 0-13 6-13 13l0 180c0 7 6 14 13 14l273 0c8 0 14-7 14-14l0-180c0-7-6-13-14-13l-39 0 0-47c0-5-3-10-8-12-2-1-4-2-6-2z m-206 88l144 0c4 0 7-2 10-4l39-38 0 28c0 8 6 14 13 14l40 0 0 152-246 0z m63 64c-8 0-13 6-13 13 0 3 1 7 3 9 2 3 6 4 10 4 7 0 12-5 12-13 0-3-1-6-3-9-2-2-6-4-9-4z m60 0c-7 0-13 6-13 13 0 3 1 7 3 9 3 3 6 4 10 4 7 0 13-5 13-13 0-3-1-6-3-9-3-2-6-4-10-4z m60 0c-7 0-13 6-13 13 0 3 1 7 3 9 3 3 6 4 10 4 7 0 13-5 13-13 0-3-1-6-3-9-3-2-6-4-10-4z m-277 76c-5 0-10 5-10 11 0 2 1 5 3 6 2 3 4 4 7 4 6 0 10-5 10-10 0-3 0-5-2-7-2-3-5-4-8-4z m0 14c0 0-1-1-2-1-1-1-1-2-1-2 0-3 3-5 6-2 0 0 1 1 1 2 0 1-2 3-4 3z m0 12c-4 0-7 3-7 7 0 12 7 24 17 31 1 0 2 0 2 0 0 1 1 1 1 1 10 3 16 11 16 21 0 13-11 23-24 23-13 0-23-10-23-23 0-3-3-6-7-6-4 0-7 3-7 6 0 20 17 37 37 37 21 0 37-17 37-37 0-16-9-29-24-34-7-4-11-11-11-19 0-4-3-7-7-7z"/>
<glyph glyph-name="user" unicode="&#108;" d="M125 331c0 73 58 134 129 134 71 0 129-61 129-134 0-74-58-134-129-134-71 0-129 60-129 134m208-156c54 30 90 88 90 156 0 96-76 175-169 175-93 0-169-79-169-175 0-67 36-125 89-155-19-11-36-25-51-42-19-24-32-53-37-84-1-11 6-22 17-24 11-2 21 6 23 17 4 24 13 46 28 64 25 30 61 48 99 48 64 0 117-49 127-113l-188 0c-11 0-20-10-20-21 0-12 9-21 20-21l210 0c5 0 9 2 13 5l0 0 0 0c0 0 0 1 1 1 0 0 0 1 1 1 3 4 5 9 5 14l0 0c0 67-36 125-89 154"/>
<glyph glyph-name="cart-min" unicode="&#109;" d="M405 209l12 37c-8 1-16 2-24 4l-8-25-40 0 6 46c-2 1-3 3-5 4-6 6-11 12-16 18-2 2-3 4-4 7l-50 0 0 44 34-3c-1 6-2 13-2 19 0 2 0 4 0 6l-195 13-11 51c-1 6-6 10-12 10l-78 0c-7 0-12-5-12-12 0-7 5-12 12-12l68 0 43-206c0 0 1-4 1-5 6-29 16-50 32-63-11-8-18-21-18-35 0-25 20-45 45-45 25 0 45 20 45 45 0 7-2 14-5 20l104 0c-3-6-5-13-5-20 0-25 20-45 44-45 25 0 45 20 45 45 0 24-20 44-45 44-1 0-3 0-4 0l-158 0c-21 0-43 6-54 49l244 0c5 0 10 4 11 9z m-222-123c-11 0-20 9-20 21 0 11 9 20 20 20 11 0 20-9 20-20 0-12-9-21-20-21z m183 0c-11 0-20 9-20 21 0 10 8 19 18 20l5 0c10-1 18-10 18-20 0-12-9-21-21-21z m-39 189l-7-50-44 0 0 50z m-182-50l-11 50 42 0 7-50z m56 50l51 0 0-50-44 0z m51 25l-55 0-7 49 62-4z m-87 51l8-51-44 0-11 54z m257 99c-50 0-90-40-90-90 0-50 40-90 90-90 50 0 90 40 90 90 0 50-40 90-90 90z m0-156c-36 0-66 30-66 66 0 36 30 66 66 66 36 0 66-30 66-66 0-36-30-66-66-66z m-38 78l76 0 0-24-76 0z"/>
<glyph glyph-name="cart-normal" unicode="&#110;" d="M407 210l43 133c0 3 0 7-1 10-4 4-5 5-11 5l-325 23-10 51c-2 7-7 10-13 10l-78 0c-7 0-12-5-12-12 0-7 5-12 12-12l68 0 43-208c0 0 2-4 2-6 5-28 16-49 32-63-11-7-18-21-18-35 0-24 19-45 45-45 25 0 44 21 44 45 0 7-2 14-4 19l103 0c-2-5-3-12-3-19 0-24 19-45 43-45 26 0 45 21 45 45 0 25-19 44-45 44-2 0-2 0-3 0l-159 0c-21 0-43 7-54 51l244 0c5 0 10 3 12 9z m-223-125c-12 0-21 9-21 21 0 11 9 19 21 19 11 0 19-8 19-19 0-12-8-21-19-21z m183 0c-10 0-19 9-19 21 0 11 7 19 17 19l5 0c11 0 18-8 18-19 0-12-9-21-21-21z m43 216l-52 0 6 38 57-3z m-264-76l-10 51 41 0 7-51z m57 51l51 0 0-51-44 0z m-3 25l-7 50 61-5 0-45-54 0z m78-25l52 0-6-51-46 0z m0 25l0 43 61-3-5-40-56 0z m-111 52l7-52-44 0-12 56z m181-128l7 51 47 0-16-51z"/>
<glyph glyph-name="cart-plus" unicode="&#111;" d="M405 209l13 38c-9 0-17 2-25 4l-8-26-40 0 6 47c-1 1-2 2-4 3-6 6-12 12-17 19-1 2-2 4-3 6l-51 0 0 44 35-3c-1 6-2 13-2 19 0 2 0 4 0 6l-196 13-11 51c-1 6-6 10-12 10l-78 0c-7 0-12-5-12-12 0-7 5-12 12-12l68 0 43-206c0 0 1-4 1-5 6-29 16-50 32-63-11-8-18-21-18-35 0-25 20-45 45-45 25 0 45 20 45 45 0 7-2 14-5 20l104 0c-3-6-5-13-5-20 0-25 20-45 44-45 25 0 45 20 45 45 0 24-20 44-45 44-1 0-3 0-4 0l-158 0c-21 0-44 6-54 49l244 0c5 0 10 4 11 9z m-222-123c-11 0-20 9-20 21 0 11 9 20 20 20 11 0 20-9 20-20 0-12-9-21-20-21z m183 0c-11 0-20 9-20 21 0 10 8 19 18 20l5 0c10-1 18-10 18-20 0-12-9-21-21-21z m-39 189l-7-50-44 0 0 50z m-182-50l-11 50 42 0 7-50z m56 50l51 0 0-50-44 0z m51 25l-55 0-7 49 62-4z m-87 51l8-51-44 0-11 54z m257 99c-50 0-90-40-90-90 0-50 40-90 90-90 50 0 90 40 90 90 0 50-40 90-90 90z m0-156c-36 0-66 30-66 66 0 36 30 66 66 66 36 0 66-30 66-66 0-36-30-66-66-66z m12 104l-24 0 0-26-26 0 0-24 26 0 0-26 24 0 0 26 26 0 0 24-26 0z"/>
<glyph glyph-name="box" unicode="&#112;" d="M258 512l-248-100 0-271 260-141 232 144 0 278z m1-32l192-70-72-38-192 80z m11-165l-207 87 85 34 197-82z m-230 65l215-91 0-248-215 117z m245-336l0 246 81 42 0-76 29 16 0 75 77 41 0-228z"/>
<glyph glyph-name="duveltje" unicode="&#113;" d="M486 399l-54-1c0 0-1 0-1 0 0 0 0-1 0-1l0-18c0-1 1-1 2-1l54 0c0 0 1 0 1 1 0 0 0 0 0 1l0 17c0 1-1 2-2 2z m-454-193c-6 3-13 0-16-6-3-6 0-13 6-16l146-71c1 9 4 16 8 23z m480 191c0 14-12 25-26 25l-54 0c-7 0-13-3-18-8-4-4-7-10-7-16l-34-2-106-225c7-3 14-7 20-12l101 214 20 1c2-11 12-20 25-20 0 0 0 0 0 0l54 0c7 0 13 3 18 8 4 5 7 11 7 18z m-24-18c0-1-1-1-1-1l-54 0c-1 0-2 0-2 1l0 18c0 0 0 1 0 1 0 0 1 0 1 0l54 1c1 0 2-1 2-2l0-17c0-1 0-1 0-1z m-383 84l-105-221 188-89c6 7 14 12 22 16l-178 84 84 179 60-29-33-72 65-30 34 71 58-27-82-173c8 2 15 4 23 4 2 0 3-1 5-1l86 181z m92-131l-23 11 24 50 22-11z m44-283c-2 0-4 0-7 0-29 3-50 30-46 59 4 29 30 50 59 47 29-4 50-30 47-60-3-26-26-46-53-46z m0 82c-15 0-28-11-29-26-2-16 9-31 25-33 17-2 31 10 33 26 2 16-9 31-26 33-1 0-2 0-3 0z"/>
<glyph glyph-name="telefoon" unicode="&#114;" d="M264 0c-7 0-12 2-15 3-56 21-112 75-166 158-1 3-2 5-3 5 0 1 0 1 0 1-1 1-1 2-2 3-55 83-81 159-77 219 0 6 3 26 30 41 12 8 45 26 61 26 2 0 3 0 4 0 4 0 19-3 27-21l30-78c4-9 8-27-7-44l-25-29c7-14 23-45 37-65 0 0 1-1 1-1 0 0 0 0 0 0 0 0 0 0 0 0 1-1 1-1 1-2 12-21 34-48 44-61l37 11c4 1 8 2 12 2 17 0 27-10 30-14l58-59c12-14 11-28 8-35-5-14-30-34-51-48-14-10-26-12-34-12z m-3 28c0 0 1 0 3 0 4 0 10 1 18 7 19 13 38 29 41 34 0 1 0 1 0 1 0 1 0 3-3 6l-57 59c-1 1-1 1-2 2 0 0-3 3-8 3-1 0-3 0-5-1l-45-13c-6-2-12 0-15 4-2 2-34 42-52 73 0 0 0 0 0 0-20 29-43 75-44 77-3 5-2 12 2 16l31 36c6 7 3 12 3 12 0 1-1 2-1 2l-30 78c-2 3-3 4-4 4 0 0-1 0-1 0-5 0-28-10-47-22-15-8-16-17-16-17 0-1 0 0 0-1-4-54 22-126 72-202 1-2 2-3 2-4 1-1 2-3 4-6 62-98 117-134 153-147 1-1 0 0 1-1 0 0 0 0 0 0z m100 484c-82 0-149-67-149-150 0-68 45-125 108-144l0-47c0-6 3-11 7-13 2-1 4-1 7-1 3 0 6 1 8 2l103 79c1 1 1 1 1 1 39 27 65 72 65 123 0 83-67 150-150 150z m66-252l-80-61 1 42c-61 7-109 59-109 121 0 67 55 122 122 122 68 0 122-55 122-122 0-43-22-80-56-102z"/>
<glyph glyph-name="search" unicode="&#115;" d="M193 512c-106 0-192-86-192-192 0-106 86-193 192-193 106 0 193 87 193 193 0 106-87 192-193 192z m0-346c-85 0-154 69-154 154 0 85 69 154 154 154 85 0 154-69 154-154 0-85-69-154-154-154z m315-69c0 2-2 5-4 7l-107 107c-4 3-8 5-13 5-1 0-2 0-3 0-6-1-11-4-14-9l-23-40-40-23c-5-3-8-8-9-14-1-6 1-12 5-16l107-107c3-2 6-4 9-5 3-1 7-2 11-2 22 0 45 21 54 30 11 11 20 22 25 33 8 17 5 28 2 34z m-78-58l-85 84 23 13c3 2 5 4 7 7l13 23 84-84c-2-5-7-14-18-25-10-10-20-16-24-18z m-252 408c2 1 4 1 6 1 4-1 8-4 9-9 3-6-1-13-7-15-5-2-105-37-83-154 1-7-3-14-10-15-1 0-3 0-4 0-5 1-9 5-10 10-27 139 98 182 99 182z"/>
<glyph glyph-name="heyerick-pijl-left-bottom" unicode="&#116;" d="M349 0l155 161-219 0 219 229-110 114-219-229 0 229-155-162 0-342z"/>
<glyph glyph-name="heyerick-pijl-right-bottom" unicode="&#117;" d="M163 0l-155 161 219 0-219 229 110 114 219-229 0 229 155-162 0-342z"/>
<glyph glyph-name="heyerick-pijl-left-top" unicode="&#118;" d="M349 512l155-161-219 0 219-229-110-114-219 229 0-229-155 162 0 342z"/>
<glyph glyph-name="heyerick-pijl-right-top" unicode="&#119;" d="M163 512l-155-161 219 0-219-229 110-114 219 229 0-229 155 162 0 342z"/>
<glyph glyph-name="facebook-stroke" unicode="&#120;" d="M307 3l-115 0 0 214-73 0 0 113 73 0 0 47c0 77 46 125 122 125 32 0 59-2 66-3l13-2 0-102-59 0c-24 0-27-8-27-26l0-39 85 0-15-113-70 0z m-86 29l57 0 0 214 74 0 7 55-81 0 0 68c0 14 0 55 56 55l30 0 0 47c-12 1-31 2-50 2-59 0-93-35-93-96l0-76-72 0 0-55 72 0z"/>
<glyph glyph-name="twitter-stroke" unicode="&#107;" d="M407 338c0-2 0-4 0-9 0-119-93-224-224-224-44 0-85 12-121 35l-7-11-1-13c7-1 13-1 21-1 41 0 80 13 112 38l29 23-37 1c-30 0-57 20-66 48l-12-4-2-13c6-1 12-1 17-1 9 0 17 1 26 3l56 14-57 12c-33 7-56 35-56 69l0 1-13 0-7-12c13-7 28-12 44-12l47-2-39 26c-20 13-32 35-32 58 0 13 4 25 10 36l-22-2c44-54 110-88 182-92l17-1-4 17c-1 6-1 11-1 16 0 39 31 70 70 70 19 0 38-8 51-22l5-5 7 1c20 4 40 12 57 22l-19 16c-6-16-17-30-31-39l-53-31 61 6c18 2 35 7 52 14l-16 20c-11-15-24-29-39-40l-6-4z m26 2l-13-1 8-10c17 12 32 28 45 46l26 38-43-18c-14-6-29-10-44-12l9-25c20 12 35 31 42 54l11 33-31-18c-14-9-31-15-48-18l12-4c-18 19-43 30-70 30-54 0-97-43-97-97 0-7 1-14 2-21l13 2 1 14c-64 3-123 33-162 82l-12 15-10-17c-9-14-13-31-13-49 0-32 16-62 43-80l8 24c-11 1-22 4-32 9l-20 11 0-23c0-47 33-86 78-95l2 13-3 13c-6-2-12-3-19-3-4 0-8 1-13 1l-22 4 7-21c12-39 49-66 90-67l-8 24c-27-21-60-33-95-33-7 0-13 1-19 1l-56 6 48-30c40-26 86-40 135-40 147 0 250 118 250 251 0 5 0 8 0 11z"/>
<glyph glyph-name="linked-in-stroke" unicode="&#121;" d="M472 63l-98 0 16-16 0 157c0 51-22 83-66 83-31 0-54-19-65-46-3-9-4-19-4-30l0-164 16 16-97 0 16-16c0 148 0 235 0 277 0 11 0 16 0 18l-16-17 97 0-16 16 0-43 16 0 0 16-1 0 0-16 14-8c18 27 38 42 75 42 60 0 96-40 96-116l0-169z m0-32l16 0 0 185c0 93-51 148-129 148-50 0-79-21-102-57l-16-25 46 0 0 75-130 0 0-17c0-1 1-6 1-16 0-42 0-129-1-277l0-16 130 0 0 180c0 8 1 15 3 19 6 15 18 25 34 25 23 0 34-16 34-51l0-173z m-352 32l-98 0 16-16 0 294-16-16 98 0-17 16 0-294z m0-32l16 0 0 326-130 0 0-326z m-49 366l-1 0c-23 0-38 15-38 35 0 20 15 34 39 34 24 0 38-14 39-34 0-21-15-35-39-35z m0-32c41 0 71 28 71 67 0 39-29 67-71 67-41 0-71-29-71-67 0-39 29-67 70-67z"/>
<glyph glyph-name="basket" unicode="&#122;" d="M445 146c-7-3-14-7-23-9-40-14-91-13-152 3-28 6-53 15-76 26-4-1-8-2-12-3-9-1-18 2-25 7l0 1c-7 6-11 12-13 21-11 6-21 14-31 22l-1 0c-18 14-33 28-45 42l22-129c-3 0-5-2-7-5-2-2-3-5-2-8 3-22 22-43 59-65 34-19 73-33 118-42 45-8 82-9 113-1 27 7 42 18 46 34 1 4 0 7-2 10-1 2-2 4-4 5l35 91m-69 226c0 7-3 13-8 18-2 2-4 3-6 4-1 3-1 5-2 8-3 13-9 29-18 49-13 26-28 44-45 53-18 10-37 11-55 2-17-8-33-24-46-48l-5-8c-7-14-13-30-18-48l0 1c-3-10-6-21-8-32l0-1c-2-10-4-20-6-31l0-1-3-36c-1-9-1-17-1-26 0-5 0-12 1-20-1-1-2-2-3-3-5-5-7-11-7-18 0-1 0-4 0-6-6 4-12 8-16 12-33 24-53 48-62 72-1 2-2 5-2 8 0 0 0 1 0 1-1 2-1 4-2 6 0 1 0 2 0 3 0 2 0 4 0 6l1 0c5-3 8-8 9-14l1 0c0-2 1-4 2-6l0-1c8-21 27-43 57-66 0-1 1-1 1-1 1-1 2-2 3-3 1 5 4 10 8 14 0 6 0 12 0 16-1 33 2 65 9 96l0 1c3 12 6 22 9 33l0 0c1 3 1 5 2 7-7 0-14 0-21 0l-47-9c-16-5-29-12-39-20-10-9-17-21-20-37 0-2-1-4-1-7l0-2c0-1 0-2 0-4 0-1 1-3 1-4 0-2 0-3 0-4 1-4 1-7 2-10l0-1c1-4 2-7 3-10 10-28 33-56 70-84 11-9 23-16 35-23l0-3c0-7 3-12 9-17 5-4 11-6 18-5 5 0 9 1 12 4 25-12 51-21 79-28 59-15 108-16 147-3 29 9 47 24 55 43 0 0 0 1 1 1l0 1c1 4 2 9 3 13 0 2 0 3 1 5 0 2 0 4 0 7l-1 7c0 1 0 1 0 2-4 34-29 69-75 104 0 0-1 1-1 1l-8 6c-2 2-3 3-5 4-3 2-5 3-7 5 0 0 0 1 0 1 0 3 0 4 0 6l-1 20m-13-49c1 0 2-1 3-2-4-2-9-3-14-3-10 0-18 3-25 9-7 7-10 15-11 25l0 19c0 2 0 4 0 6-6 3-12 6-18 8l-53 17c-12 2-23 5-34 7-1-5-3-10-5-15l0-1c-2-9-5-19-8-30-5-28-8-57-8-87 0-3 0-7 0-12 2-1 4-2 5-4 7-6 10-14 11-24 0-1 0-1 0-2l2-28c21-10 44-18 67-24 52-12 95-13 129-3l-1 0c17 6 28 14 34 24l0-1c2 6 6 10 11 12 0-2 0-4 0-6-1-3-1-5-2-8 0-1 0-1 0-2-7-12-20-21-40-28-35-12-79-10-133 4-26 6-51 15-74 25l0 1-3 34 0 1c0 7-2 13-7 18-2 2-5 4-7 5-1 7-1 13-1 18l2 52c0 2 0 5 1 7 0 1 0 1 0 2 2 9 3 19 6 29 2 10 4 20 7 29l0 1c4 13 9 25 13 36 1 1 1 1 2 2 1 2 1 4 2 6l4 6c10 18 22 31 35 37 10 5 21 4 32-1 13-8 24-22 34-42 9-17 14-31 16-43 1-2 1-3 1-5-1-1-2-2-3-3-5-5-7-11-7-18l0-16c-1-1-1-3 0-5 0-2 0-4 0-5 0-7 3-13 8-18 5-5 11-7 19-7 4 1 7 2 10 3z"/>
<glyph glyph-name="calculator" unicode="&#65;" d="M496 0l-480 0c-9 0-16 7-16 16l0 480c0 9 7 16 16 16l480 0c9 0 16-7 16-16l0-480c0-9-7-16-16-16z m-465 31l450 0 0 450-450 0z m225-22c-9 0-16 7-16 16l0 460c0 9 7 16 16 16 9 0 16-7 16-16l0-460c0-9-7-16-16-16z m233 231l-464 0c-9 0-16 7-16 16 0 9 7 16 16 16l464 0c9 0 16-7 16-16 0-9-7-16-16-16z m-353 93c-5 0-8 3-8 8l0 78c0 4 3 8 8 8 4 0 8-4 8-8l0-78c0-5-4-8-8-8z m39 39l-78 0c-5 0-8 4-8 8 0 4 3 8 8 8l78 0c4 0 8-4 8-8 0-4-4-8-8-8z m-67-273c-2 0-4 1-5 3-3 3-3 8 0 11l55 55c3 3 8 3 11 0 3-3 3-8 0-11l-55-55c-2-2-4-3-6-3z m55 0c-2 0-4 1-5 3l-55 55c-3 3-3 8 0 11 3 3 8 3 11 0l55-55c3-3 3-8 0-11-2-2-4-3-6-3z m253 273l-78 0c-4 0-8 4-8 8 0 4 4 8 8 8l78 0c5 0 8-4 8-8 0-4-3-8-8-8z m0-258l-78 0c-4 0-8 4-8 8 0 4 4 8 8 8l78 0c5 0 8-4 8-8 0-4-3-8-8-8z m0 26l-78 0c-4 0-8 4-8 8 0 4 4 8 8 8l78 0c5 0 8-4 8-8 0-4-3-8-8-8z"/>
<glyph glyph-name="grid-thin" unicode="&#66;" d="M0 398l100 0 0 100-100 0z m299 0l-100 0 0 100 100 0z m199 0l-100 0 0 100 100 0z m-498-199l100 0 0 100-100 0z m299 0l-100 0 0 100 100 0z m199 0l-100 0 0 100 100 0z m-498-199l100 0 0 100-100 0z m299 0l-100 0 0 100 100 0z m199 0l-100 0 0 100 100 0z"/>
<glyph glyph-name="list-thin" unicode="&#67;" d="M112 377l-112 0 0 112 112 0z m349-152l-247 0c-24 0-44 20-44 45 0 25 20 45 44 45l247 0c25 0 45-20 45-45 0-25-20-45-45-45m-349-11l-112 0 0 112 112 0z m349-152l-247 0c-24 0-44 20-44 45 0 24 20 44 44 44l247 0c25 0 45-20 45-44 0-25-20-45-45-45m-349-11l-112 0 0 112 112 0z m349 312l-247 0c-24 0-44 20-44 45 0 25 20 45 44 45l247 0c25 0 45-20 45-45 0-25-20-45-45-45"/>
<glyph glyph-name="stalen" unicode="&#68;" d="M100 220c13 0 23-10 23-23 0-13-10-23-23-23-13 0-23 10-23 23 0 13 10 23 23 23m0 10c-18 0-33-15-33-33 0-18 15-33 33-33 18 0 33 15 33 33 0 18-15 33-33 33m386-171l0 307c-5-5-15-8-28-8l-353 0c-44 0-79-35-79-82l0-143c0-43 35-82 82-82l376 0c2 3 2 3 2 8m-376 335l0-25 348 0c36 0 41 30 0 38l-274 51c-38 8-74-23-74-64m-10-25l0 25c0 49 43 85 89 74l274-51c18-2 36-13 36-33l0-328c0-10-7-18-18-18l-376 0c-51 0-92 41-92 93l0 145c0 49 38 90 87 93m381-331l-376 0c-51 0-95 44-95 95l0 143c0 49 39 90 87 95l0 23c0 23 11 46 28 62 18 15 41 20 64 18l274-52c26-5 39-18 39-35l0-328c0-10-10-21-21-21z m-307 430c-18 0-33-5-46-17-18-13-26-34-26-57l0-28-2 0c-49-2-85-43-85-90l0-143c0-51 41-89 90-89l376 0c8 0 16 7 16 15l0 325c0 15-11 26-34 31l-274 51c-5 2-10 2-15 2z m307-417l-376 0c-46 0-85 39-85 85l0 140c0 47 39 85 85 85l353 0c10 0 21 3 26 8l5 2 0-312c0-5-3-8-8-8z m-376 305c-44 0-79-36-79-80l0-143c0-43 35-79 79-79l376 0 3 2 0 305c-8-3-16-5-26-5z m-5-192c-21 0-36 15-36 36 0 20 15 36 36 36 20 0 36-16 36-36 0-21-16-36-36-36z m0 64c-16 0-31-13-31-31 0-15 13-31 31-31 15 0 31 13 31 31 0 18-16 31-31 31z m0-54c-13 0-26 10-26 26 0 12 10 25 26 25 15 0 25-10 25-25 0-16-12-26-25-26z m0 44c-10 0-21-8-21-21 0-10 8-20 21-20 10 0 20 7 20 20 0 13-10 21-20 21z m358 148l-350 0 0 28c0 21 7 39 23 51 15 13 35 18 56 16l274-51c23-6 31-16 28-23 0-11-10-21-31-21z m-345 5l345 0c18 0 26 8 26 13 0 8-8 15-26 18l-274 51c-18 3-36-2-51-13-13-10-20-25-20-46z"/>
<glyph glyph-name="wash" unicode="&#69;" d="M0 367c-4 19 26 28 31 8l7-34 50-238-15 11 365 0-15-11 7 34 52 238c4 20 34 11 30-8l-7-34-52-239c-2-6-9-11-15-11l-365 0c-7 0-14 5-15 11l-7 34z m211 53c-2-17-3-35-6-52-1-2 0 2 0 1l-2-3c-4-5-7-10-10-14-7-11-15-21-19-33-6-23-4-48 0-70 0-7 1-19 6-23 9-7 23-7 28 3 5 10 5 25 5 36 1 9 2 18 2 28l-11 0c0-32-3-65 1-96 1-13 2-25 4-37 1-8 0-20 8-25 9-6 20 1 22 10 3 10 3 21 4 31 1 14 1 27 0 41 0 7 1 17-1 24-3 7-10 5-11-1-2-7 0-14 0-21 1-23 2-47 4-70 1-7 1-15 4-22 3-8 16-11 24-7 9 4 9 13 10 22 1 13 2 26 2 39 1 14 1 27 1 41 0 6 2 13 0 18-1 5-8 5-10 0-1-3 0-7 0-10 0-8 1-16 1-24 1-18 2-37 3-56 0-5 0-11 2-16 4-8 17-5 23-1 8 6 8 17 9 26 1 11 1 23 2 35 1 12 1 24 1 36 0 4 1 13-4 15-2 1-4 1-6-1-5-4-2-18-2-24 0-14 0-28 2-42 0-8-1-20 6-26 9-8 24-2 26 9 3 9 3 19 4 28 2 16 3 31 5 47 2 25 7 50 1 75-5 19-14 37-22 55-7 17-9 39-5 57 2 6-8 9-10 2-7-26 1-53 12-77 8-17 16-35 17-54 1-7 1-15 0-23-2-26-5-52-8-78-1-9-1-19-3-28-1-4-6-10-10-5-2 2-2 8-2 10-2 14-2 28-2 42-1 6-1 12-1 18 0 2-8 3-8 2 0-4 0-9 0-13 0-11-1-22-2-34 0-11 0-23-2-35-1-2-1-5-3-8-2-2-8-2-9 4-2 19-2 37-3 55-1 9-1 17-1 25 0 3-11 5-11 3 0-9 0-17 0-25-1-20-1-40-3-60-1-6 0-16-8-16-8 0-7 5-8 12-3 18-4 36-5 55 0 10-1 19-1 29 0 4 0 7 0 11 0 0-9 1-9-2 0-4 0-8 1-13 0-11 0-22 0-33 0-10-1-21-2-31-1-3-1-8-2-10-5-7-8 1-9 5-5 31-6 61-6 91l1 50c0 7-10 7-11 0 0-17 0-34-3-51-1-2-1-7-3-9-2-1-10-1-12 3-3 10-3 20-4 30-2 21-3 46 9 65 5 9 12 18 18 27 3 4 5 7 6 11 3 17 4 35 7 52 1 7-10 6-11 0z m-164-122c10 3 15 7 23 14 6 6 10 13 16 19 6 6 14 9 22 9 21 1 25-19 38-32 7-6 17-12 27-12 6 0 6 10 0 10-15 0-24 15-31 26-8 13-22 20-36 19-14-1-26-9-33-20-8-11-15-18-28-23z m294-6c10 3 19 8 27 16 7 5 10 13 16 19 6 6 15 9 23 9 21 0 25-20 38-32 7-7 17-17 17-17l3 13c0 0-18 15-25 28-7 13-21 19-35 18-14-1-26-8-34-19-8-12-19-21-33-25-6-3-3-13 3-10z"/>
<glyph glyph-name="size-guide" unicode="&#70;" d="M319 419l-50 46 0-196 196 0-46 47 20 20 63-63c10-10 10-27 0-40l-63-63-20 20 46 53-196 0 0-196 47 46 20-20-63-63c-10-10-27-10-40 0l-63 63 20 20 53-46 0 196-196 0 46-47-20-20-66 60c-10 10-10 27 0 40l63 63 20-20-43-46 196 0 0 192-50-46-20 23 63 63c10 10 27 10 40 0l63-63z"/>
</font>
</defs>
</svg>
